<svg width="32" height="32" viewBox="0 0 32 32" fill="none" xmlns="http://www.w3.org/2000/svg">
  <path d="M16 2L4 8V24L16 30L28 24V8L16 2Z" fill="#800000"/>
  <path d="M16 4L6 9V23L16 28L26 23V9L16 4Z" fill="#FFD700"/>
  <path d="M16 8C13.2386 8 11 10.2386 11 13C11 14.4876 11.7346 15.8089 12.8649 16.6892C11.7346 17.5695 11 18.8908 11 20.3784C11 23.1398 13.2386 25.3784 16 25.3784C18.7614 25.3784 21 23.1398 21 20.3784C21 18.8908 20.2654 17.5695 19.1351 16.6892C20.2654 15.8089 21 14.4876 21 13C21 10.2386 18.7614 8 16 8Z" fill="#800000"/>
</svg> 